<svg xmlns="http://www.w3.org/2000/svg" width="738.67" height="106.67" version="1" viewBox="0 0 554 80">
  <path fill="#FFF" d="M11.5 12.5c-2.2.8-4.1 1.5-4.2 1.5-.1 0-.9 1.3-1.8 3-2 3.8-2 12.9.1 15.8 3.2 4.7 6 5.2 26.6 5.2 23.3 0 23.8.2 23.8 8.5 0 8.5-.1 8.5-27.7 8.5H5v7.1l25.8-.3c28.1-.3 30.5-.8 33-6.3 1.5-3.4 1.5-14.6 0-18-2.4-5.2-5.4-5.9-28.1-6.5-22.8-.5-22.7-.5-22.7-6.7 0-5.9 1.7-6.3 26.7-6.3H62v-7H38.8c-17.7.1-24.3.4-27.3 1.5zM81.2 23.2c7.2 6.8 14.6 13.6 16.4 15.1l3.4 2.8V62h9V41.3L123.3 29c7.2-6.8 14.5-13.6 16.2-15.2l3-2.8h-12l-11.1 10.2c-6 5.7-11.7 10.9-12.7 11.7-1.5 1.2-3 .1-14.1-10.3L80.3 11H68.1l13.1 12.2zM147 36.5V62h8V42.5c0-10.7.2-19.5.5-19.5s12.5 8.8 27.1 19.5c17 12.5 27.5 19.5 29 19.5h2.4V11h-9v18.5c0 10.2-.3 18.5-.6 18.5s-11.5-8.3-24.9-18.5C157.2 12.6 154.8 11 151.1 11H147v25.5zM221 14.5V18h26v44h10V18h26v-7h-62v3.5zM289 36.5V62h9V39h42v23h9V11h-8.9l-.3 10.2-.3 10.3h-41l-.3-10.3-.3-10.2H289v25.5zM370.8 36.6L354 62h10.6l12.3-19.3c6.9-10.5 12.9-19.7 13.5-20.4.8-.9 4.4 3.9 14.1 19.2l13 20.5H428l-7.4-11.3C392.2 7.1 395.1 11 391.1 11.1c-3.6 0-3.7.2-20.3 25.5zM436.5 12.5c-2.2.8-4.1 1.5-4.2 1.5-.1 0-.9 1.3-1.8 3-2 3.8-2 12.9.1 15.8 3.2 4.7 6 5.2 26.6 5.2 23.3 0 23.8.2 23.8 8.5 0 8.5-.1 8.5-27.7 8.5H430v7.1l25.8-.3c21.8-.3 26.2-.6 28.8-2 4-2.2 5.4-5.6 5.4-13.3 0-13.8-1.9-14.8-29.3-15.5-22.8-.5-22.7-.5-22.7-6.7 0-5.9 1.7-6.3 26.7-6.3H487v-7h-23.2c-17.7.1-24.3.4-27.3 1.5zM499 36.5V62h52v-7l-21.2-.2-21.3-.3-.3-7.8-.3-7.7H549v-7l-20.2-.2-20.3-.3v-13l21.3-.3L551 18v-7h-52v25.5z"/>
</svg>
