<svg xmlns="http://www.w3.org/2000/svg" width="1084" height="198.67" version="1" viewBox="0 0 813 149">
  <path fill="#FFF" d="M24.4 11.1c-3.5 1-8.2 5.3-9.5 8.7-.5 1.3-.9 5.4-.9 9.1 0 7.9 2.2 12.1 8 15.5 3.2 2 5.6 2.1 32.1 2.6 22.5.4 29 .8 30.3 1.9 1.4 1.2 1.6 2.9 1.4 9.5l-.3 8.1-3.5 1.2c-2.4.8-13.3 1.2-34.7 1.2L16 69v10.1l37.8-.3 37.8-.3 3.6-2.5c5.2-3.5 7.1-7.3 7.6-15.4.8-13.6-3.7-21.3-13.8-23.5-2.9-.6-15.9-1.1-30.4-1.1C30 36 30 36 30 28.4c0-8.2.9-8.4 38.1-8.4H99V10l-35.7.1c-19.7 0-37.2.5-38.9 1zM128.5 30.6L151 51.2V79h16V51.2L189 31c12.1-11.1 22-20.4 22-20.6 0-.2-4.3-.4-9.5-.4h-9.4l-15.7 14.2c-8.6 7.9-16.4 14.3-17.4 14.3s-8.8-6.4-17.5-14.3L125.8 10H106l22.5 20.6zM217 44.5V79h15V53.5c0-14 .2-25.5.5-25.5.4 0 14.8 10.3 61.2 43.7 9.4 6.8 10.5 7.3 15.2 7.3h5.1V10h-15v24.1c0 15.7-.3 24-1 23.7-1.1-.3-9.3-6.3-42.8-31l-22.7-16.7-7.7-.1H217v34.5zM321 15v5h37v59h16l.2-29.3.3-29.2 17.8-.3L410 20V10h-89v5zM417 44.5V79h17V48h55v31h16V10h-16v27h-55V10h-17v34.5zM533.2 44.5L509.9 79H527.6l17.5-26.5C554.7 37.9 562.7 26 563 26c.3 0 3.7 4.8 7.5 10.7 3.8 6 11.6 17.9 17.3 26.5L598.1 79H615.8l-23.1-34.5L569.6 10h-13.2l-23.2 34.5zM629.5 11.2c-4.2 1.5-8.2 5.5-9.6 9.6-.6 1.9-.9 6.3-.7 9.8.5 7.5 2.5 10.9 8.4 13.9 3.5 1.8 6.5 2 32 2.5 33.2.6 32.4.3 32.4 10.2 0 3.3-.5 6.8-1 7.8-1.8 3.4-7.5 4-39.2 4H621v10h36.8c36.2 0 36.8 0 41.2-2.3 7.4-3.8 8.5-6.1 8.5-18.7 0-11.7-.8-13.9-6.7-18.3-4.1-3.1-9.6-3.6-36.5-3.7-23.9 0-25.4-.1-27.3-2-2.8-2.8-2.7-9 .1-11.6 2-1.8 4.3-1.9 34.5-2.2l32.4-.3V10l-35.7.1c-22.1 0-36.9.5-38.8 1.1zM717 44.5V79h76V69l-29.2-.2-29.3-.3-.3-10.3-.3-10.2H790V37h-56V20h59V10h-76v34.5zM24.7 120.2C14.4 135 9 143 9 143.5c0 .3 1.3.5 2.9.5 2.7 0 3.8-1.2 10.6-11.5 4.2-6.3 8-11.5 8.3-11.5.4 0 4.1 5.2 8.2 11.5 6.5 10 7.9 11.5 10.3 11.5 1.5 0 2.7-.3 2.7-.7 0-.4-4.4-7.2-9.7-15C36 119 32 114 30.9 114c-1.1 0-3.6 2.6-6.2 6.2zM55 129v15h15.4c15.9 0 20.9-.9 22.6-4 .6-1 1-6 1-11s-.4-10-1-11c-1.7-3.1-6.7-4-22.6-4H55v15zm32.5 0v9.5l-13.2.3-13.3.3v-20.2l13.3.3 13.2.3v9.5zM121.4 115.3c-.2.7-.3 7.4-.2 14.8l.3 13.4 2.8.3 2.7.3V114h-2.5c-1.4 0-2.8.6-3.1 1.3zM133 126.8c0 17.2-.6 16.6 18.4 17 19.5.5 19.1.8 19.1-16.5v-12.8l-2.7-.3-2.7-.3-.3 12.3-.3 12.3-12.7.3-12.7.3-.3-12.3-.3-12.3-2.7-.3-2.8-.3v12.9zM179.3 115.2c-4.4 2.1-5.3 9.9-1.6 13 1.1.9 6.1 1.5 14.7 1.8l13.1.5.3 4.2.3 4.2-14.8.3c-14 .3-14.8.4-14.8 2.3s.7 2 15.6 2c14 0 15.9-.2 17.8-1.9 2.6-2.4 3-10.6.5-13-2.2-2.2-4.3-2.6-17.4-2.9l-11.5-.2v-6l14.5-.5c13.7-.5 14.5-.6 14.5-2.5s-.7-2-14.5-2.2c-8.7-.1-15.4.2-16.7.9zM215 116.5c0 2.5.1 2.5 8 2.5h7.9l.3 12.2.3 12.3 2.8.3 2.7.3V119h7.5c7.3 0 7.5-.1 7.5-2.5V114h-37v2.5zM257 129v15h5v-30h-5v15zM266.4 115.5c-1.1 2.7.7 3.5 8.7 3.5h7.9v25h5v-25h7.5c7.3 0 7.5-.1 7.5-2.5V114h-18c-14.9 0-18.2.3-18.6 1.5zM308 129v15h5v-30h-5v15zM327.7 127.7c-5.1 7.6-9.7 14.4-10.1 15.1-.5.8.2 1.2 2.3 1.2 2.8 0 3.8-1 10.7-11.5 4.3-6.3 8-11.5 8.3-11.5.3 0 4 5.2 8.1 11.5 6.5 9.9 7.9 11.4 10.3 11.5 1.5 0 2.7-.4 2.7-1 0-.5-4.4-7.3-9.7-15-6.2-9-10.3-14-11.4-14-1.1 0-5.1 4.8-11.2 13.7zM385.4 115.3c-.2.7-.3 7.4-.2 14.8l.3 13.4 2.8.3c2.7.3 2.7.2 2.7-5.2V133h11.3c6.9 0 12.1-.5 13.7-1.3 5.2-2.6 5.2-13.5 0-16.2-3.9-2-29.8-2.2-30.6-.2zm28.4 8.4c.4 5.2-.4 5.5-13.3 5.1l-9-.3-.3-4.8-.3-4.8 11.3.3 11.3.3.3 4.2zM424 129v15h31v-5h-26.1l.3-4.3.3-4.2 12.3-.3c11.4-.2 12.2-.4 12.2-2.2 0-1.9-.7-2-12.5-2H429v-7h26v-5h-31v15zM459.4 115.3c-.2.7-.3 7.4-.2 14.8l.3 13.4 2.8.3 2.7.3V130h15.9l3.8 7c3.3 6 4.2 7 6.6 7h2.7l-3-6c-3.6-7-3.6-7.7-1-8.5 5.8-1.8 6.5-11.2 1-14-3.9-2-30.8-2.2-31.6-.2zm29.1 7.2v3l-11.7.3-11.8.3v-7.2l11.8.3 11.7.3v3zM522 128.9V144h2.5c2.4 0 2.5-.3 2.5-5.4v-5.4l12.6-.4c11.8-.3 12.7-.4 14.5-2.7 2.5-3.1 2.5-10.1 0-13.2-1.8-2.3-2.5-2.4-17-2.7l-15.1-.3v15zm27.8-5.2c.4 5.2-.4 5.5-13.3 5.1l-9-.3-.3-4.8-.3-4.8 11.3.3 11.3.3.3 4.2zM560 129v15.1l2.8-.3c2.6-.3 2.7-.5 3-7.1l.3-6.7h15.5l3.8 7c3 5.7 4.2 7 6.2 7 3.1 0 3-1.1-.7-7.7-1.7-3-3-5.5-2.8-5.6l3.4-1.7c2.6-1.3 3-2.2 3.3-6.1.2-3.6-.1-4.9-1.9-6.5-1.9-1.7-3.9-1.9-17.5-2.2l-15.4-.3V129zm29.5-8c1.3 4.1-1 5-12.6 5H566v-7h11.4c10.7 0 11.5.1 12.1 2zM600 126.4c0 17.3-.3 17 17 17.4 21.3.6 21 .8 21-16.9V114h-5.9l-.3 12.2-.3 12.3h-25l-.3-12.3-.3-12.2H600v12.4zM643 129v15h15.4c15.9 0 20.9-.9 22.6-4 .6-1 1-6 1-11s-.4-10-1-11c-1.7-3.1-6.7-4-22.6-4H643v15zm32.5 0v9.5l-13.2.3-13.3.3v-20.2l13.3.3 13.2.3v9.5zM687 129v15h31v-5h-25v-9h12c11.3 0 12-.1 12-2s-.7-2-12-2h-12v-7h25v-5h-31v15zM723 129.1c0 15 0 15 2.3 14.7 2.1-.3 2.2-.8 2.5-11.1.1-5.9.5-10.7.7-10.7.3 0 7.4 4.8 15.8 10.7 8.3 5.8 16 10.8 17 11.1 1.6.4 1.7-.8 1.7-14.7V114h-2.5c-2.4 0-2.4 0-2.7 11l-.3 11-15-11c-8.3-6-16-10.9-17.2-11-2.3 0-2.3.1-2.3 15.1zM773 114.7c-5.2 1.9-6.9 9.4-3 13.3 1.8 1.8 3.3 2 14.3 2 6.7 0 12.8.4 13.5.9.8.5 1.2 2.2 1 4.2l-.3 3.4-14.7.3-14.8.3v4.9h14.5c8.6 0 15.4-.5 16.9-1.1 3.2-1.5 5-5.9 4.2-10.3-1-5.5-2.5-6-17-6.6l-13.1-.5v-6l14.3-.3 14.2-.3V114l-14.2.1c-7.9 0-15 .3-15.8.6z"/>
</svg>
